<?xml version="1.0" encoding="UTF-8" standalone="no"?>
<svg
   xmlns:osb="http://www.openswatchbook.org/uri/2009/osb"
   xmlns:dc="http://purl.org/dc/elements/1.1/"
   xmlns:cc="http://creativecommons.org/ns#"
   xmlns:rdf="http://www.w3.org/1999/02/22-rdf-syntax-ns#"
   xmlns:svg="http://www.w3.org/2000/svg"
   xmlns="http://www.w3.org/2000/svg"
   xmlns:xlink="http://www.w3.org/1999/xlink"
   xmlns:sodipodi="http://sodipodi.sourceforge.net/DTD/sodipodi-0.dtd"
   xmlns:inkscape="http://www.inkscape.org/namespaces/inkscape"
   id="svg4306"
   width="23"
   height="23"
   version="1.1"
   style="enable-background:new"
   sodipodi:docname="close.svg"
   inkscape:version="0.92.4 (unknown)">
  <metadata
     id="metadata31">
    <rdf:RDF>
      <cc:Work
         rdf:about="">
        <dc:format>image/svg+xml</dc:format>
        <dc:type
           rdf:resource="http://purl.org/dc/dcmitype/StillImage" />
        <dc:title />
      </cc:Work>
    </rdf:RDF>
  </metadata>
  <defs
     id="defs29">
    <linearGradient
       id="fg_color"
       osb:paint="solid">
      <stop
         style="stop-color:#d3dae3;stop-opacity:1;"
         offset="0"
         id="stop1387" />
    </linearGradient>
    <linearGradient
       id="selected_fg_color"
       osb:paint="solid">
      <stop
         style="stop-color:#ffffffgit;stop-opacity:1;"
         offset="0"
         id="stop6555" />
    </linearGradient>
    <linearGradient
       id="y"
       x1="47.266998"
       x2="50.099998"
       y1="145.13"
       y2="145.13"
       gradientUnits="userSpaceOnUse"
       xlink:href="#selected_fg_color" />
  </defs>
  <sodipodi:namedview
     pagecolor="#303030"
     bordercolor="#666666"
     borderopacity="1"
     objecttolerance="10"
     gridtolerance="10"
     guidetolerance="10"
     inkscape:pageopacity="0"
     inkscape:pageshadow="2"
     inkscape:window-width="1366"
     inkscape:window-height="708"
     id="namedview27"
     showgrid="true"
     inkscape:zoom="3.7926637"
     inkscape:cx="-39.941986"
     inkscape:cy="10.106394"
     inkscape:window-x="0"
     inkscape:window-y="0"
     inkscape:window-maximized="1"
     inkscape:current-layer="svg4306"
     inkscape:snap-bbox="true"
     inkscape:bbox-nodes="true"
     inkscape:snap-nodes="false">
    <inkscape:grid
       type="xygrid"
       id="grid892" />
  </sodipodi:namedview>
  <g
     style="opacity:0.35"
     id="inactive-center"
     transform="matrix(3.7795,0,0,3.7795,-172.99694,-615.51402)">
    <rect
       x="43.655998"
       y="141.16"
       width="10.054"
       height="7.9375"
       ry="3.7990001e-06"
       style="opacity:0;stroke-width:0.40217;paint-order:stroke fill markers"
       id="rect956" />
    <path
       inkscape:connector-curvature="0"
       d="m 47.454,143.71 -0.18707,0.18706 1.2294,1.2294 -1.2294,1.2289 0.18707,0.18707 1.2294,-1.2289 1.2289,1.2289 0.18707,-0.18707 -1.2289,-1.2289 1.2289,-1.2294 -0.18707,-0.18706 -1.2289,1.2294 z"
       style="opacity:1;fill:#ffffff;fill-opacity:1;paint-order:stroke fill markers"
       id="path958" />
  </g>
  <g
     id="active-center"
     transform="matrix(3.7795,0,0,3.7795,-172.99694,-574.51402)"
     style="opacity:0.75">
    <rect
       x="43.655998"
       y="141.16"
       width="10.054"
       height="7.9375"
       ry="3.7990001e-06"
       style="opacity:0;stroke-width:0.40217;paint-order:stroke fill markers"
       id="rect976" />
    <path
       inkscape:connector-curvature="0"
       d="m 47.454,143.71 -0.18707,0.18706 1.2294,1.2294 -1.2294,1.2289 0.18707,0.18707 1.2294,-1.2289 1.2289,1.2289 0.18707,-0.18707 -1.2289,-1.2289 1.2289,-1.2294 -0.18707,-0.18706 -1.2289,1.2294 z"
       style="fill:#ffffff;fill-opacity:1;paint-order:stroke fill markers"
       id="path978" />
  </g>
  <g
     id="g842">
    <rect
       x="-7.9990945"
       y="-1.9997861"
       width="37.999092"
       height="29.999781"
       ry="1.4358321e-05"
       style="fill:#009f90;stroke-width:3.77950001;paint-order:stroke fill markers;fill-opacity:1"
       id="rect996" />
    <path
       inkscape:connector-curvature="0"
       d="M 6.355453,7.637925 5.6484219,8.3449183 10.294939,12.991436 5.6484219,17.636063 6.355453,18.343094 11.00197,13.698467 15.646598,18.343094 16.353629,17.636063 11.709001,12.991436 16.353629,8.3449183 15.646598,7.637925 11.00197,12.284442 Z"
       style="fill:#ffffff;fill-opacity:1;stroke-width:3.77950001;paint-order:stroke fill markers"
       id="path998" />
  </g>
  <g
     id="g836">
    <rect
       x="-7.9990945"
       y="38.000214"
       width="37.999092"
       height="29.999781"
       ry="1.4358321e-05"
       style="fill:#009f90;stroke-width:3.77950001;paint-order:stroke fill markers;fill-opacity:1"
       id="rect1016" />
    <path
       inkscape:connector-curvature="0"
       d="m 6.355453,47.637925 -0.7070311,0.706993 4.6465171,4.646518 -4.6465171,4.644627 0.7070311,0.707031 4.646517,-4.644627 4.644628,4.644627 0.707031,-0.707031 -4.644628,-4.644627 4.644628,-4.646518 -0.707031,-0.706993 -4.644628,4.646517 z"
       style="fill:#ffffff;fill-opacity:1;stroke-width:3.77950001;paint-order:stroke fill markers"
       id="path1018" />
  </g>
  <g
     transform="matrix(3.7795,0,0,3.7795,-172.99694,-654.51381)"
     id="deactivated-center"
     style="opacity:0.35">
    <rect
       id="rect880"
       style="opacity:0;stroke-width:0.40217;paint-order:stroke fill markers"
       ry="3.7990001e-06"
       height="7.9375"
       width="10.054"
       y="141.16"
       x="43.655998" />
    <path
       id="path882"
       style="opacity:1;fill:#ffffff;fill-opacity:1;paint-order:stroke fill markers"
       d="m 47.454,143.71 -0.18707,0.18706 1.2294,1.2294 -1.2294,1.2289 0.18707,0.18707 1.2294,-1.2289 1.2289,1.2289 0.18707,-0.18707 -1.2289,-1.2289 1.2289,-1.2294 -0.18707,-0.18706 -1.2289,1.2294 z"
       inkscape:connector-curvature="0" />
  </g>
</svg>
